KRSPY-MiddleGround.ufo
<glyph name="one" format="2">
  <advance width="1737.8546654762874"/>
  <unicode hex="0031"/>
  <outline>
    <contour>
      <point x="53.52939425912399" y="0.0" type="line"/>
      <point x="1665.5314233152071" y="0.0" type="line" identifier="CURJAw79Zl"/>
      <point x="1665.5314233152071" y="319.66452739025317" type="line" identifier="0DUCJo8xIi"/>
      <point x="1069.2618293969647" y="319.66452739025317" type="line" identifier="5nmxQXofSG"/>
      <point x="1069.2618293969647" y="1600.0" type="line" identifier="4rjIeWbSbx"/>
      <point x="50.20745069393719" y="1600.0" type="line"/>
      <point x="50.20745069393719" y="1280.3354726097468" type="line"/>
      <point x="649.7989881773667" y="1280.3354726097468" type="line"/>
      <point x="649.7989881773667" y="319.66452739025317" type="line"/>
      <point x="53.52939425912399" y="319.66452739025317" type="line"/>
    </contour>
  </outline>
</glyph>
<glyph name="two" format="2">
  <advance width="2130.6011687363043"/>
  <unicode hex="0032"/>
  <outline>
    <contour>
      <point x="85.10134458783108" y="0.0" type="line"/>
      <point x="2045.9339920501084" y="0.0" type="line" identifier="pzdvPTirLJ"/>
      <point x="2045.9339920501084" y="402.2644045446848" type="line" identifier="91SxUS0iwG"/>
      <point x="1653.7814030246464" y="402.2644045446848" type="line" identifier="fP7EN0pUcl"/>
      <point x="1653.7814030246464" y="312.24645867088316" type="line" identifier="eb458Bdvng"/>
      <point x="600.6635283932582" y="312.24645867088316" type="line"/>
      <point x="600.6635283932582" y="448.0136593049506" type="line" identifier="9fjc25rkUx"/>
      <point x="2041.177880583286" y="997.6501005510014" type="line" identifier="yyb1NCCI5w"/>
      <point x="2041.177880583286" y="1600.0" type="line" identifier="5FogYRSgkk"/>
      <point x="88.4232881530179" y="1600.0" type="line" identifier="svlFvrau4c"/>
      <point x="88.4232881530179" y="1128.4153873593314" type="line" identifier="LQ9fBsTy9K"/>
      <point x="480.5204664123583" y="1128.4153873593314" type="line" identifier="jS6EyIAKtm"/>
      <point x="480.5204664123583" y="1288.1244447650854" type="line"/>
      <point x="1525.2609867124381" y="1288.1244447650854" type="line" identifier="N6CMAjhNlU"/>
      <point x="1525.2609867124381" y="1065.5100886672458" type="line" identifier="yK1d5IcluK"/>
      <point x="85.10134458783108" y="509.35820905991073" type="line" identifier="teVKnpBcVb"/>
    </contour>
  </outline>
</glyph>
<glyph name="three" format="2">
  <advance width="2137.551362172984"/>
  <unicode hex="0033"/>
  <outline>
    <contour>
      <point x="88.9267916565214" y="0.0" type="line" identifier="O9abUc1nmN"/>
      <point x="2049.3252712171634" y="0.0" type="line" identifier="kMJYMTfXCq"/>
      <point x="2049.3252712171634" y="851.0964808652495" type="line" identifier="su2XmdS8e8"/>
      <point x="1713.6665544423302" y="851.0964808652495" type="line" identifier="JQaOzDQqlF"/>
      <point x="1713.6665544423302" y="830.5404413422431" type="line"/>
      <point x="2024.5842058274495" y="985.0671742813885" type="line" identifier="S91TzLL02W"/>
      <point x="2024.5842058274495" y="1600.0" type="line" identifier="xg8x2Ki40p"/>
      <point x="94.68663257852448" y="1600.0" type="line" identifier="pE1XSRiy68"/>
      <point x="94.68663257852448" y="1166.3948452957463" type="line" identifier="5lNstGRcSF"/>
      <point x="486.6462949435923" y="1166.3948452957463" type="line" identifier="AcE5xKDZfE"/>
      <point x="486.6462949435923" y="1283.4118623127633" type="line" identifier="7ogBYufWpl"/>
      <point x="1571.9800340881425" y="1283.4118623127633" type="line" identifier="RHLvSX2Jv6"/>
      <point x="1571.9800340881425" y="986.7356405454502" type="line" identifier="YUjTrmoWd9"/>
      <point x="1328.2392432472514" y="868.8083829575321" type="line"/>
      <point x="1328.2392432472514" y="865.1908114320526" type="line" identifier="iic1IBkDqp"/>
      <point x="481.10105901697494" y="865.1908114320526" type="line" identifier="lRLJEhXMlO"/>
      <point x="481.10105901697494" y="676.9011493976459" type="line" identifier="8aKgEELrVU"/>
      <point x="1629.7249141032928" y="676.9011493976459" type="line" identifier="Dm8zjmbhNr"/>
      <point x="1629.7249141032928" y="312.24645867088316" type="line" identifier="xv9CFHiFgB"/>
      <point x="480.780081382684" y="312.24645867088316" type="line" identifier="YajKQV3MHP"/>
      <point x="480.780081382684" y="355.9915050185321" type="line" identifier="36SchVkwze"/>
      <point x="88.9267916565214" y="355.9915050185321" type="line" identifier="tVui9PiOjA"/>
    </contour>
  </outline>
</glyph>
<glyph name="four" format="2">
  <advance width="2131.965911857804"/>
  <unicode hex="0034"/>
  <outline>
    <contour>
      <point x="1483.9417796174555" y="0.0" type="line"/>
      <point x="1903.4046208370535" y="0.0" type="line"/>
      <point x="1903.4046208370535" y="627.721029337646" type="line"/>
      <point x="2042.6261937613292" y="627.721029337646" type="line"/>
      <point x="2042.6261937613292" y="938.483874264655" type="line"/>
      <point x="1903.4046208370535" y="938.483874264655" type="line"/>
      <point x="1903.4046208370535" y="1600.0" type="line"/>
      <point x="1483.9417796174555" y="1600.0" type="line"/>
      <point x="1483.9417796174555" y="938.483874264655" type="line"/>
      <point x="498.4522089657225" y="938.483874264655" type="line"/>
      <point x="498.4522089657225" y="1040.8728388047707" type="line"/>
      <point x="678.1451180910641" y="1680.0" type="line"/>
      <point x="258.76173470768066" y="1680.0" type="line"/>
      <point x="79.28866704542381" y="1040.17213810407" type="line"/>
      <point x="79.28866704542381" y="627.721029337646" type="line"/>
      <point x="1483.9417796174555" y="627.721029337646" type="line"/>
    </contour>
  </outline>
</glyph>
<glyph name="five" format="2">
  <advance width="2137.1569677785897"/>
  <unicode hex="0035"/>
  <outline>
    <contour>
      <point x="92.7548860171483" y="0.0" type="line" identifier="09VlJ0BjUX"/>
      <point x="2045.8061304547793" y="0.0" type="line" identifier="EagWihqFM8"/>
      <point x="2045.8061304547793" y="885.8759610461312" type="line" identifier="KfNuQA7eZe"/>
      <point x="510.6518951383817" y="936.6657698739781" type="line" identifier="At364YZFEy"/>
      <point x="510.6518951383817" y="1287.7535413291168" type="line" identifier="BcuLfvaQKC"/>
      <point x="2045.8061304547793" y="1287.7535413291168" type="line" identifier="3ZUkG35meB"/>
      <point x="2045.8061304547793" y="1600.0" type="line" identifier="SaF9ojRFrW"/>
      <point x="91.3508373238103" y="1600.0" type="line" identifier="F4sQEYelA8"/>
      <point x="91.3508373238103" y="708.2560869177486" type="line" identifier="3sQ8t8BZ6b"/>
      <point x="1626.5050726402078" y="657.144334524715" type="line" identifier="yiV6OCBLHg"/>
      <point x="1626.5050726402078" y="312.24645867088316" type="line" identifier="9kdl9SYsn8"/>
      <point x="484.76995914833753" y="312.24645867088316" type="line" identifier="yZDWuX8LLe"/>
      <point x="484.76995914833753" y="397.44497049602154" type="line" identifier="jYb9001DTm"/>
      <point x="92.7548860171483" y="397.44497049602154" type="line" identifier="ho4DrS0rdW"/>
    </contour>
  </outline>
</glyph>
<glyph name="six" format="2">
  <advance width="2133.025214403593"/>
  <unicode hex="0036"/>
  <outline>
    <contour>
      <point x="85.36787738689641" y="0.0" type="line" identifier="uiw6aBUf4P"/>
      <point x="2046.200524849174" y="0.0" type="line" identifier="jtYkxiUX6G"/>
      <point x="2046.200524849174" y="886.9286503720938" type="line" identifier="2G5L37c87I"/>
      <point x="504.7243459675893" y="886.9286503720938" type="line"/>
      <point x="504.7243459675893" y="1136.6539141744347" type="line"/>
      <point x="611.6834812790769" y="1284.0445069694317" type="line"/>
      <point x="1653.7814030246464" y="1284.0445069694317" type="line"/>
      <point x="1653.7814030246464" y="1182.9487365243122" type="line"/>
      <point x="2045.200524849174" y="1182.9487365243122" type="line" identifier="Wuidbv6mUe"/>
      <point x="2045.200524849174" y="1600.0" type="line" identifier="oGvEEuxnYv"/>
      <point x="265.0338717095474" y="1600.0" type="line" identifier="xR3pEHbMJx"/>
      <point x="85.36787738689641" y="1199.9656914171428" type="line" identifier="KnMArb0tv8"/>
    </contour>
    <contour>
      <point x="1626.6001677353029" y="654.6658430201974" type="line"/>
      <point x="1626.6001677353029" y="308.5374243111981" type="line"/>
      <point x="504.7243459675893" y="308.5374243111981" type="line"/>
      <point x="504.7243459675893" y="654.6658430201974" type="line"/>
    </contour>
  </outline>
</glyph>
<glyph name="seven" format="2">
  <advance width="2133.426615804994"/>
  <unicode hex="0037"/>
  <outline>
    <contour>
      <point x="853.0109188267348" y="0.0" type="line"/>
      <point x="1327.6655694733774" y="0.0" type="line" identifier="PiPrv7Kcoy"/>
      <point x="2044.9339920501084" y="1214.7368609851092" type="line" identifier="PkvwNC9Tx1"/>
      <point x="2044.9339920501084" y="1600.0" type="line" identifier="tgqM27bPOm"/>
      <point x="85.10134458783108" y="1600.0" type="line" identifier="36ml4xRICt"/>
      <point x="85.10134458783108" y="1043.0970530089648" type="line" identifier="aaDZsh5Mah"/>
      <point x="476.8992235478722" y="1043.0970530089648" type="line"/>
      <point x="476.8992235478722" y="1280.3354726097468" type="line"/>
      <point x="1570.571165760355" y="1280.3354726097468" type="line"/>
      <point x="1570.571165760355" y="1214.880868856845" type="line"/>
    </contour>
  </outline>
</glyph>
<glyph name="eight" format="2">
  <advance width="2166.4402240077916"/>
  <unicode hex="0038"/>
  <outline>
    <contour>
      <point x="1500.398502606711" y="683.7594341087835" type="line"/>
      <point x="1650.640938235533" y="578.9420952484016" type="line"/>
      <point x="1650.640938235533" y="307.4247140032926" type="line"/>
      <point x="515.7992857722588" y="307.4247140032926" type="line"/>
      <point x="515.7992857722588" y="575.6039643246851" type="line"/>
      <point x="666.5264724183643" y="683.5739823907992" type="line"/>
    </contour>
    <contour>
      <point x="1888.3751629507387" y="799.0" type="line"/>
      <point x="1888.3751629507387" y="801.0" type="line"/>
      <point x="2066.8372466560654" y="962.8327847366886" type="line"/>
      <point x="2066.8372466560654" y="1600.0" type="line"/>
      <point x="99.76476075675275" y="1600.0" type="line"/>
      <point x="99.76476075675275" y="962.8327847366886" type="line"/>
      <point x="279.0709127545964" y="801.0" type="line"/>
      <point x="279.0709127545964" y="799.0" type="line"/>
      <point x="96.49822795768742" y="633.3573994414836" type="line"/>
      <point x="96.49822795768742" y="0.0" type="line"/>
      <point x="2070.1037794551307" y="0.0" type="line"/>
      <point x="2070.1037794551307" y="633.3573994414836" type="line"/>
    </contour>
    <contour>
      <point x="666.5264724183643" y="919.9496002509015" type="line"/>
      <point x="519.3066810554299" y="1022.811640469298" type="line"/>
      <point x="519.1212293374456" y="1296.2843203563923" type="line"/>
      <point x="1647.318994670346" y="1296.2843203563923" type="line"/>
      <point x="1647.1335429523617" y="1022.811640469298" type="line"/>
      <point x="1500.2130508887267" y="920.1350519688858" type="line"/>
    </contour>
  </outline>
</glyph>
<glyph name="nine" format="2">
  <advance width="2133.025214403593"/>
  <unicode hex="0039"/>
  <outline>
    <contour>
      <point x="2046.9012255498744" y="1600.0" type="line" identifier="uiw6aBUf4P"/>
      <point x="86.06857808759712" y="1600.0" type="line" identifier="jtYkxiUX6G"/>
      <point x="86.06857808759712" y="698.2680849017185" type="line" identifier="2G5L37c87I"/>
      <point x="1627.3008684360038" y="698.2680849017185" type="line"/>
      <point x="1627.3008684360038" y="310.3919414910406" type="line"/>
      <point x="478.9218678137597" y="310.3919414910406" type="line"/>
      <point x="478.9218678137597" y="412.7095844593342" type="line"/>
      <point x="87.1239888537186" y="412.7095844593342" type="line" identifier="Wuidbv6mUe"/>
      <point x="87.1239888537186" y="0.0" type="line" identifier="oGvEEuxnYv"/>
      <point x="2046.9012255498744" y="0.0" type="line" identifier="xR3pEHbMJx"/>
    </contour>
    <contour>
      <point x="505.42504666828995" y="942.1814777740703" type="line"/>
      <point x="505.42504666828995" y="1285.8990241492743" type="line"/>
      <point x="1627.3008684360038" y="1285.8990241492743" type="line"/>
      <point x="1627.3008684360038" y="942.1814777740703" type="line"/>
    </contour>
  </outline>
</glyph>
<glyph name="A" format="2">
  <advance width="2157.000541081622"/>
  <unicode hex="0041"/>
  <outline>
    <contour>
      <point x="96.19892865838811" y="0.0" type="line" smooth="yes" identifier="jFq8ta4UUc"/>
      <point x="515.4999864729594" y="0.0" type="line" smooth="yes" identifier="dQz4RxYhG4"/>
      <point x="515.4999864729594" y="558.4039965891818" type="line" smooth="yes" identifier="viYRWe5UN7"/>
      <point x="1637.3758082406732" y="558.4039965891818" type="line" smooth="yes" identifier="QVexAlbAcl"/>
      <point x="1637.3758082406732" y="0.0" type="line" smooth="yes" identifier="ZgsCdxNJRW"/>
      <point x="2056.9761653545443" y="0.0" type="line" smooth="yes" identifier="kpn4Kw9J0C"/>
      <point x="2056.9761653545443" y="1600.0" type="line" smooth="yes" identifier="OBZ5Ayed7M"/>
      <point x="285.22019016013013" y="1600.0" type="line" smooth="yes" identifier="iDT0uyhKrn"/>
      <point x="96.19892865838811" y="1088.917447978509" type="line" smooth="yes" identifier="dqVr87m3uJ"/>
    </contour>
    <contour>
      <point x="515.4999864729594" y="865.0869037205373" type="line" smooth="yes" identifier="IIRC9Wy7kQ"/>
      <point x="515.4999864729594" y="1035.692804917029" type="line" smooth="yes" identifier="VufvPdJ075"/>
      <point x="626.3939745551356" y="1280.3354726097468" type="line" smooth="yes" identifier="FsYtJ2vFnp"/>
      <point x="1637.3758082406732" y="1280.3354726097468" type="line" smooth="yes" identifier="tUsW8L7b0y"/>
      <point x="1637.3758082406732" y="865.0869037205373" type="line" smooth="yes" identifier="eTe9B4y76W"/>
    </contour>
  </outline>
</glyph>
<glyph name="C" format="2">
  <advance width="2131.2633524415305"/>
  <unicode hex="0043"/>
  <outline>
    <contour>
      <point x="84.40064388713039" y="0.0" type="line" identifier="7lPhzTnk2Z"/>
      <point x="2011.9886142398657" y="0.0" type="line" identifier="qJVLZGnkwh"/>
      <point x="2011.9886142398657" y="388.8964319675031" type="line" identifier="nDnDHzAMXL"/>
      <point x="1592.5257730202675" y="388.8964319675031" type="line" identifier="QX1V08aTu0"/>
      <point x="1592.5257730202675" y="321.5190445700957" type="line" identifier="Y750RHTvDj"/>
      <point x="503.70170170170167" y="321.5190445700957" type="line" identifier="L2LsGnXiZ2"/>
      <point x="503.88715341968594" y="1010.2371741110479" type="line" identifier="sUWsr03vF4"/>
      <point x="625.162096029964" y="1278.4809554299043" type="line" identifier="dbOUe6OhxL"/>
      <point x="1591.8730081432786" y="1278.4809554299043" type="line" identifier="5BjRbcud80"/>
      <point x="1591.6875564252944" y="954.6581987392798" type="line" identifier="fNVDqwQo2o"/>
      <point x="2010.9886142398657" y="954.6581987392798" type="line" identifier="wLqQQx7QVN"/>
      <point x="2010.9886142398657" y="1600.0" type="line" identifier="9eJelv8BOw"/>
      <point x="270.8168979790602" y="1600.0" type="line" identifier="lfZev3ICaC"/>
      <point x="84.40064388713039" y="1096.2591269948628" type="line" identifier="V1EWIdPahq"/>
    </contour>
  </outline>
</glyph>
<glyph name="D" format="2">
  <advance width="2147.12279847415"/>
  <unicode hex="0044"/>
  <outline>
    <contour>
      <point x="91.61737012287564" y="0.0" type="line" identifier="gh4oopoKIn"/>
      <point x="2056.2061290519755" y="0.0" type="line" identifier="wIy2omw5Da"/>
      <point x="2056.2061290519755" y="1094.9198267336403" type="line" identifier="ydeACnPZN4"/>
      <point x="1801.5949292635983" y="1600.0" type="line" identifier="IF8msvcgce"/>
      <point x="91.61737012287564" y="1600.0" type="line" identifier="hTYdJwlqIh"/>
    </contour>
    <contour>
      <point x="510.97383870356845" y="1280.3354726097468" type="line" identifier="YShvMHvurg"/>
      <point x="1476.7714942169398" y="1280.3354726097468" type="line" identifier="DiLdvAK6bW"/>
      <point x="1636.849660471282" y="1018.4409775140505" type="line" identifier="5OFemp6E2Y"/>
      <point x="1636.849660471282" y="319.66452739025317" type="line" identifier="4w8cXO1HlF"/>
      <point x="510.97383870356845" y="319.66452739025317" type="line" identifier="OGdfzPVlic"/>
    </contour>
  </outline>
</glyph>
<glyph name="F" format="2">
  <advance width="2008.2930498065634"/>
  <unicode hex="0046"/>
  <outline>
    <contour>
      <point x="100.02437572707842" y="0.0" type="line" identifier="oAgH2tA6DJ"/>
      <point x="519.3254335416498" y="0.0" type="line" identifier="zCZyMcW5ho"/>
      <point x="519.3254335416498" y="496.4990966942919" type="line" identifier="yHYqkMd7LI"/>
      <point x="1827.7547277006738" y="496.4990966942919" type="line" identifier="NmB7yyQuio"/>
      <point x="1827.7547277006738" y="799.102066029994" type="line" identifier="wQk2C8zPHh"/>
      <point x="519.3254335416498" y="799.102066029994" type="line" identifier="4cFHKQfHDt"/>
      <point x="519.3254335416498" y="1279.9645691737783" type="line" identifier="ZvzwyrcwpS"/>
      <point x="1659.3598463328192" y="1279.9645691737783" type="line" identifier="4E754ovOIe"/>
      <point x="1659.3598463328192" y="1108.435845254664" type="line" identifier="vZkeT9KrKR"/>
      <point x="1939.2197873549226" y="1108.435845254664" type="line" identifier="0tk7G4orz6"/>
      <point x="1939.2197873549226" y="1600.0" type="line" identifier="NUrIjqOB7J"/>
      <point x="100.02437572707842" y="1600.0" type="line" identifier="TBAYuCfUFX"/>
    </contour>
  </outline>
</glyph>
<glyph name="G" format="2">
  <advance width="2127.476422368314"/>
  <unicode hex="0047"/>
  <outline>
    <contour>
      <point x="84.40064388713039" y="0.0" type="line" identifier="7lPhzTnk2Z"/>
      <point x="2044.5339934529125" y="0.0" type="line" identifier="qJVLZGnkwh"/>
      <point x="2044.5339934529125" y="894.7557547537527" type="line" identifier="uek1NNj7De"/>
      <point x="1145.5160445731017" y="894.7557547537527" type="line" identifier="qcvimxjndX"/>
      <point x="1145.5160445731017" y="664.0528506484463" type="line" identifier="EARaY3Su65"/>
      <point x="1627.5091848605362" y="664.0528506484463" type="line" identifier="4m6dHLVhZq"/>
      <point x="1627.5091848605362" y="310.3919414910406" type="line" identifier="Y750RHTvDj"/>
      <point x="503.70170170170167" y="310.3919414910406" type="line" identifier="L2LsGnXiZ2"/>
      <point x="503.70170170170167" y="1067.5801166531896" type="line" identifier="sUWsr03vF4"/>
      <point x="614.4561358154951" y="1287.7535413291168" type="line" identifier="dbOUe6OhxL"/>
      <point x="1624.6913710507304" y="1287.7535413291168" type="line" identifier="5BjRbcud80"/>
      <point x="1624.6913710507304" y="1068.7471144818492" type="line" identifier="fNVDqwQo2o"/>
      <point x="2044.3153964775586" y="1068.7471144818492" type="line" identifier="wLqQQx7QVN"/>
      <point x="2044.177880583286" y="1600.0" type="line" identifier="9eJelv8BOw"/>
      <point x="274.03633363092825" y="1600.0" type="line" identifier="lfZev3ICaC"/>
      <point x="84.40064388713039" y="1152.7009542074607" type="line" identifier="V1EWIdPahq"/>
    </contour>
  </outline>
</glyph>
<glyph name="H" format="2">
  <advance width="2160.8259881503122"/>
  <unicode hex="0048"/>
  <outline>
    <contour>
      <point x="100.02437572707842" y="0.0" type="line" identifier="uqAJBjDIOT"/>
      <point x="519.3254335416498" y="0.0" type="line" identifier="WUaPOcaxKT"/>
      <point x="519.3254335416498" y="644.9894809724639" type="line" identifier="QjywsYY2yB"/>
      <point x="1641.2012553093634" y="644.9894809724639" type="line" identifier="7JgTtdb0jg"/>
      <point x="1641.2012553093634" y="0.0" type="line" identifier="njzlIRBsoY"/>
      <point x="2060.42285528772" y="0.0" type="line" identifier="oOtn61SmRY"/>
      <point x="2060.42285528772" y="1600.0" type="line" identifier="8OglXgblhr"/>
      <point x="1641.2012553093634" y="1600.0" type="line" identifier="db0bPhBdaU"/>
      <point x="1641.2012553093634" y="955.0105190275361" type="line" identifier="MTAeavIVWY"/>
      <point x="519.3254335416498" y="955.0105190275361" type="line" identifier="lggLiivmLt"/>
      <point x="519.3254335416498" y="1600.0" type="line" identifier="UPaHY3UudR"/>
      <point x="100.02437572707842" y="1600.0" type="line" identifier="ZnCDQVdtyD"/>
    </contour>
  </outline>
</glyph>
<glyph name="M" format="2">
  <advance width="2619.5292048805563"/>
  <unicode hex="004D"/>
  <outline>
    <contour>
      <point x="1107.9743116489865" y="80.0" type="line" identifier="0Dn4Xpf57M"/>
      <point x="552.3650076502929" y="1254.3722320919517" type="line"/>
      <point x="519.9240321402484" y="1254.3722320919517" type="line"/>
      <point x="519.9240321402484" y="0.0" type="line"/>
      <point x="100.46119092065038" y="0.0" type="line"/>
      <point x="100.46119092065038" y="1600.0" type="line"/>
      <point x="741.3437762086411" y="1600.0" type="line"/>
      <point x="1297.6311366421478" y="408.2610518426335" type="line"/>
      <point x="1321.8980682384085" y="408.2610518426335" type="line" identifier="9aKZPM0HPh"/>
      <point x="1878.1854286719154" y="1600.0" type="line"/>
      <point x="2519.2055298541786" y="1600.0" type="line"/>
      <point x="2519.2055298541786" y="0.0" type="line"/>
      <point x="2099.6051727403083" y="0.0" type="line"/>
      <point x="2099.6051727403083" y="1254.3722320919517" type="line"/>
      <point x="2067.4634965295627" y="1254.3722320919517" type="line"/>
      <point x="1511.55489323157" y="80.0" type="line" identifier="spdoeeCFft"/>
    </contour>
  </outline>
</glyph>
<glyph name="O" format="2">
  <advance width="2155.4970375781186"/>
  <unicode hex="004F"/>
  <outline>
    <contour>
      <point x="2058.907731555379" y="439.855400946492" type="line" identifier="ob8US3C311"/>
      <point x="2058.907731555379" y="1600.3709034359686" type="line" identifier="c9brEFyXXA"/>
      <point x="314.28696464232" y="1600.0" type="line" identifier="a4Ql951bxG"/>
      <point x="97.14566117669222" y="1152.7009542074607" type="line" identifier="kbL68Qh2zr"/>
      <point x="97.14566117669222" y="0.0" type="line" identifier="U6WibAQAUl"/>
      <point x="1842.5809763717673" y="0.37090343596850106" type="line" identifier="dfgNHTgBfR"/>
    </contour>
    <contour>
      <point x="1639.4212220228237" y="572.9671272874475" type="line" identifier="SnrsQD5TLy"/>
      <point x="1512.7970082194306" y="330.7916304693082" type="line" identifier="jjd5iRDXWT"/>
      <point x="516.4467189912635" y="330.7916304693082" type="line" identifier="YbQKHpAtYn"/>
      <point x="516.4467189912635" y="1021.6913299686072" type="line" identifier="vdfGLkskOQ"/>
      <point x="649.7645252860468" y="1269.7647246846445" type="line" identifier="qXlVxK5ShE"/>
      <point x="1639.4212220228237" y="1269.7647246846445" type="line" identifier="g70r2r6DwY"/>
    </contour>
  </outline>
</glyph>
<glyph name="P" format="2">
  <advance width="2147.4517490463436"/>
  <unicode hex="0050"/>
  <outline>
    <contour>
      <point x="100.02437572707842" y="0.0" type="line" identifier="EG08jqU5fb"/>
      <point x="519.3254335416498" y="0.0" type="line" identifier="osRzIFK2Cu"/>
      <point x="519.3254335416498" y="552.8462546630715" type="line" identifier="hIFVovVRwe"/>
      <point x="2027.0114058001946" y="634.4807249692135" type="line" identifier="Tt6D8zYZmU"/>
      <point x="2027.0114058001946" y="1600.0" type="line" identifier="6xW04auDFu"/>
      <point x="100.02437572707842" y="1600.0" type="line" identifier="eETO5GBD5v"/>
    </contour>
    <contour>
      <point x="519.3254335416498" y="824.5774052330607" type="line" identifier="PIBVN1PGv1"/>
      <point x="519.3254335416498" y="1280.3354726097468" type="line" identifier="IZIZQr2gYJ"/>
      <point x="1607.3556379202025" y="1280.3354726097468" type="line" identifier="2c4LCF1E1R"/>
      <point x="1607.3556379202025" y="883.6325975625275" type="line" identifier="1WCnzth1GX"/>
    </contour>
  </outline>
</glyph>
<glyph name="Q" format="2">
  <advance width="2155.4970375781186"/>
  <unicode hex="0051"/>
  <outline>
    <contour>
      <point x="2058.351376401426" y="1600.3709034359686" type="line" identifier="c9brEFyXXA"/>
      <point x="304.6286576867158" y="1600.3709034359686" type="line" identifier="a4Ql951bxG"/>
      <point x="97.14566117669222" y="1133.3371469567664" type="line" identifier="kbL68Qh2zr"/>
      <point x="97.14566117669222" y="0.37090343596850106" type="line" identifier="U6WibAQAUl"/>
      <point x="2058.351376401426" y="0.37090343596850106" type="line" identifier="dfgNHTgBfR"/>
    </contour>
    <contour>
      <point x="1639.0503185868552" y="320.03543082622167" type="line" identifier="jjd5iRDXWT"/>
      <point x="516.4467189912635" y="320.03543082622167" type="line" identifier="YbQKHpAtYn"/>
      <point x="516.4467189912635" y="1051.69728487246" type="line" identifier="vdfGLkskOQ"/>
      <point x="633.8596153711269" y="1280.7063760457154" type="line" identifier="qXlVxK5ShE"/>
      <point x="1639.0503185868552" y="1280.7063760457154" type="line" identifier="g70r2r6DwY"/>
    </contour>
    <contour>
      <point x="923.93519345171" y="-279.5148521895269" type="line"/>
      <point x="1247.0444648853058" y="-279.5148521895269" type="line"/>
      <point x="1247.0444648853058" y="1.3561128696263833" type="line"/>
      <point x="923.93519345171" y="1.3561128696263833" type="line"/>
    </contour>
  </outline>
</glyph>
<glyph name="R" format="2">
  <advance width="2158.000541081622"/>
  <unicode hex="0052"/>
  <outline>
    <contour>
      <point x="520.6430694959224" y="874.8742887031175" type="line"/>
      <point x="520.2721660599539" y="1280.3354726097468" type="line"/>
      <point x="1637.5538220903588" y="1280.3354726097468" type="line"/>
      <point x="1637.7392738083431" y="977.1554337119903" type="line"/>
      <point x="1503.5991607222838" y="874.8742887031175" type="line"/>
    </contour>
    <contour>
      <point x="2060.772774776779" y="0.0" type="line"/>
      <point x="2060.958226494763" y="562.704782860939" type="line"/>
      <point x="1891.891313736159" y="727.1300179057937" type="line"/>
      <point x="1891.891313736159" y="729.1300179057937" type="line"/>
      <point x="2057.202115027941" y="894.9363677992307" type="line"/>
      <point x="2057.0166633099566" y="1600.0" type="line"/>
      <point x="100.97110824538252" y="1600.0" type="line"/>
      <point x="100.97110824538252" y="0.0" type="line"/>
      <point x="520.4576177779381" y="0.0" type="line"/>
      <point x="520.4576177779381" y="574.4967399832265" type="line"/>
      <point x="1503.7055333611893" y="574.4967399832265" type="line"/>
      <point x="1641.2545227910593" y="472.08297687076464" type="line"/>
      <point x="1641.2545227910593" y="0.0" type="line"/>
    </contour>
  </outline>
</glyph>
<glyph name="S" format="2">
  <advance width="2082.150610069529"/>
  <unicode hex="0053"/>
  <outline>
    <contour>
      <point x="94.13578643708776" y="0.0" type="line" identifier="09VlJ0BjUX"/>
      <point x="1989.8530402274148" y="0.0" type="line" identifier="EagWihqFM8"/>
      <point x="1989.8530402274148" y="893.8238318398478" type="line" identifier="KfNuQA7eZe"/>
      <point x="518.385741096452" y="900.2206190174159" type="line" identifier="At364YZFEy"/>
      <point x="518.385741096452" y="1300.778578378178" type="line" identifier="BcuLfvaQKC"/>
      <point x="1598.0551612673735" y="1300.778578378178" type="line" identifier="3ZUkG35meB"/>
      <point x="1598.0551612673735" y="1196.4079414750086" type="line" identifier="DTOJhFIl15"/>
      <point x="1988.0653336018702" y="1196.4079414750086" type="line" identifier="9KDcrfQ5Ui"/>
      <point x="1988.0653336018702" y="1600.0" type="line" identifier="SaF9ojRFrW"/>
      <point x="98.76171566962358" y="1600.0" type="line" identifier="F4sQEYelA8"/>
      <point x="98.76171566962358" y="719.4872239606974" type="line" identifier="3sQ8t8BZ6b"/>
      <point x="1570.5519824128432" y="713.0904367831296" type="line" identifier="yiV6OCBLHg"/>
      <point x="1570.5519824128432" y="312.24645867088316" type="line" identifier="9kdl9SYsn8"/>
      <point x="485.7166916666416" y="312.24645867088316" type="line" identifier="yZDWuX8LLe"/>
      <point x="485.7166916666416" y="414.8116865614363" type="line" identifier="jYb9001DTm"/>
      <point x="94.13578643708776" y="414.8116865614363" type="line" identifier="ho4DrS0rdW"/>
    </contour>
  </outline>
</glyph>
<glyph name="U" format="2">
  <advance width="2157.000541081622"/>
  <unicode hex="0055"/>
  <outline>
    <contour>
      <point x="1638.076508941374" y="1600.0" type="line" smooth="yes"/>
      <point x="1638.076508941374" y="319.66452739025317" type="line"/>
      <point x="643.709040371703" y="319.66452739025317" type="line" smooth="yes"/>
      <point x="516.2006871736602" y="555.9322826329833" type="line" smooth="yes"/>
      <point x="516.2006871736602" y="1600.0" type="line"/>
      <point x="96.89962935908882" y="1600.0" type="line" smooth="yes"/>
      <point x="96.89962935908882" y="482.4934023112201" type="line" smooth="yes"/>
      <point x="315.5102399696994" y="0.0" type="line" smooth="yes"/>
      <point x="2057.732276821366" y="0.0" type="line" smooth="yes"/>
      <point x="2057.732276821366" y="1600.0" type="line" smooth="yes"/>
    </contour>
  </outline>
</glyph>
<glyph name="V" format="2">
  <advance width="2157.000541081622"/>
  <unicode hex="0056"/>
  <outline>
    <contour>
      <point x="516.2006871736602" y="1600.0" type="line" smooth="yes"/>
      <point x="516.2006871736602" y="319.66452739025317" type="line"/>
      <point x="1499.0222134045957" y="319.66452739025317" type="line" smooth="yes"/>
      <point x="1638.076508941374" y="571.0913876839802" type="line" smooth="yes"/>
      <point x="1638.076508941374" y="1600.0" type="line"/>
      <point x="2057.732276821366" y="1600.0" type="line" smooth="yes"/>
      <point x="2057.732276821366" y="482.4934023112201" type="line" smooth="yes"/>
      <point x="1841.906933960988" y="0.0" type="line" smooth="yes"/>
      <point x="96.89962935908882" y="0.0" type="line" smooth="yes"/>
      <point x="96.89962935908882" y="1600.0" type="line" smooth="yes"/>
    </contour>
  </outline>
</glyph>
<glyph name="W" format="2">
  <advance width="3151.3181018856694"/>
  <unicode hex="0057"/>
  <outline>
    <contour>
      <point x="2506.2302843383927" y="1600.0" type="line" smooth="yes" identifier="12Pyby1xY2"/>
      <point x="2506.2302843383927" y="319.66452739025317" type="line" identifier="iqeTRv7HXg"/>
      <point x="1836.3004025046068" y="319.66452739025317" type="line" identifier="GlWB6PG54Z"/>
      <point x="1750.379294209124" y="519.2001751501251" type="line"/>
      <point x="1750.0005370736103" y="652.0377244110979" type="line"/>
      <point x="1749.2508765021278" y="1600.0" type="line"/>
      <point x="1350.7079161243328" y="1476.8600592584576" type="line" smooth="yes"/>
      <point x="1351.1420840259682" y="525.6571025479934" type="line"/>
      <point x="1300.8598017436857" y="319.66452739025317" type="line" identifier="Ljn2lpvpG8"/>
      <point x="725.193635076518" y="319.66452739025317" type="line" smooth="yes" identifier="oee4nqI8Wl"/>
      <point x="594.6478059641223" y="553.2172833494154" type="line" smooth="yes" identifier="WWvGwSpq0g"/>
      <point x="594.6478059641223" y="1600.0" type="line" identifier="JfSFAkWGZC"/>
      <point x="174.86302117933752" y="1600.0" type="line" smooth="yes" identifier="RTOJW56qXy"/>
      <point x="174.86302117933752" y="482.4934023112201" type="line" smooth="yes" identifier="7g7f8Wu7K4"/>
      <point x="393.4736317899482" y="0.0" type="line" smooth="yes" identifier="R4lklfJsHA"/>
      <point x="1524.1374888401915" y="0.0" type="line" smooth="yes" identifier="Pkl7cZ37MU"/>
      <point x="1551.3171008846687" y="290.20040861682503" type="line"/>
      <point x="1558.3772150528907" y="290.20040861682503" type="line"/>
      <point x="1647.440061683305" y="0.0" type="line" smooth="yes" identifier="rCeQLyjlsN"/>
      <point x="2975.0880069258446" y="0.0" type="line" smooth="yes" identifier="ZqTZqAY3uY"/>
      <point x="2975.0880069258446" y="1600.0" type="line" smooth="yes" identifier="5LJg4ajoG6"/>
    </contour>
  </outline>
</glyph>
<glyph name="X" format="2">
  <advance width="2166.4402240077916"/>
  <unicode hex="0058"/>
  <outline>
    <contour>
      <point x="1499.6566957347738" y="639.0550259969679" type="line"/>
      <point x="1650.0845830815801" y="530.1248766283801" type="line"/>
      <point x="1650.0845830815801" y="0.0" type="line"/>
      <point x="2069.547424301178" y="0.0" type="line"/>
      <point x="2069.547424301178" y="626.6811375940506" type="line"/>
      <point x="1887.5700916131348" y="799.0" type="line"/>
      <point x="1887.5700916131348" y="801.0" type="line"/>
      <point x="2065.8467236004776" y="966.7272708143579" type="line"/>
      <point x="2065.8467236004776" y="1600.0" type="line"/>
      <point x="1646.7626395163932" y="1600.0" type="line"/>
      <point x="1646.7626395163932" y="1063.2835317800282" type="line"/>
      <point x="1499.6566957347738" y="960.9449740030321" type="line"/>
      <point x="665.9701172644116" y="960.9449740030321" type="line"/>
      <point x="518.750325901477" y="1063.2835317800282" type="line"/>
      <point x="518.750325901477" y="1600.0" type="line"/>
      <point x="99.64257350443536" y="1600.0" type="line"/>
      <point x="99.64257350443536" y="966.7272708143579" type="line"/>
      <point x="278.2658414169926" y="801.0" type="line"/>
      <point x="278.2658414169926" y="799.0" type="line"/>
      <point x="95.94187280373467" y="626.6811375940506" type="line"/>
      <point x="95.94187280373467" y="0.0" type="line"/>
      <point x="515.4283823362903" y="0.0" type="line"/>
      <point x="515.4283823362903" y="530.1248766283801" type="line"/>
      <point x="665.9701172644116" y="639.0550259969679" type="line"/>
    </contour>
  </outline>
</glyph>
<glyph name="S.alt" format="2">
  <advance width="144.7027027027027"/>
  <outline>
    <contour>
      <point x="18.83783783783784" y="0.0" type="line" identifier="09VlJ0BjUX"/>
      <point x="116.94594594594595" y="0.0" type="line" identifier="EagWihqFM8"/>
      <point x="116.94594594594595" y="924.9239239239239" type="line" identifier="KfNuQA7eZe"/>
      <point x="18.83783783783784" y="924.9239239239239" type="line" identifier="At364YZFEy"/>
      <point x="18.83783783783784" y="1171.076076076076" type="line"/>
      <point x="40.50650650650651" y="1312.9749749749749" type="line"/>
      <point x="114.94594594594595" y="1312.9749749749749" type="line" identifier="3ZUkG35meB"/>
      <point x="114.94594594594595" y="1174.114114114114" type="line" identifier="DTOJhFIl15"/>
      <point x="116.94594594594595" y="1174.114114114114" type="line" identifier="9KDcrfQ5Ui"/>
      <point x="116.94594594594595" y="1600.0" type="line" identifier="SaF9ojRFrW"/>
      <point x="61.432432432432435" y="1600.0" type="line"/>
      <point x="16.83783783783784" y="1171.076076076076" type="line"/>
      <point x="16.83783783783784" y="675.0760760760761" type="line" identifier="3sQ8t8BZ6b"/>
      <point x="114.94594594594595" y="675.0760760760761" type="line" identifier="yiV6OCBLHg"/>
      <point x="114.94594594594595" y="287.02502502502506" type="line" identifier="9kdl9SYsn8"/>
      <point x="20.2972972972973" y="287.02502502502506" type="line" identifier="yZDWuX8LLe"/>
      <point x="20.2972972972973" y="378.6966966966967" type="line" identifier="jYb9001DTm"/>
      <point x="18.83783783783784" y="378.6966966966967" type="line" identifier="ho4DrS0rdW"/>
    </contour>
  </outline>
</glyph>
